# xmcd
#
# Track frame offsets:
#       150
#       18112
#       34644
#       46960
#       66381
#       78430
#       92097
#       106108
#       124736
#       137536
#       155222
#       172380
#       189567
#       202361
#       218857
#       232793
#       251134
#
# Disc length: 3557 seconds
#
# Revision: 0
# Processed by: cddbd v1.5.1PL2 Copyright (c) Steve Scherf et al.
# Submitted via: WhereIsIt 3.26
#
DISCID=f20de311
DTITLE=The Carpenters - a tribute to The Carpenters
DYEAR=1900
DGENRE=
TTITLE0=Close To You
TTITLE1=Goodbye To Love
TTITLE2=Hurting Each Other
TTITLE3=Solitaire
TTITLE4=Sweet Sweet Smile
TTITLE5=Top The World
TTITLE6=We've Only Just Begun
TTITLE7=Calling Occupants Of Interplanetary Craft
TTITLE8=For All We Know
TTITLE9=I Won't Last A Day Wihout You
TTITLE10=Jambalaya
TTITLE11=Only Yesterday
TTITLE12=Please Mr. Postman
TTITLE13=Rainy Days and Mondays
TTITLE14=Sing (Sing A Song)
TTITLE15=Superstar
TTITLE16=Yesterday Once More
EXTD=Compilation 2000 Cosmopolitan
EXTT0=
EXTT1=
EXTT2=
EXTT3=
EXTT4=
EXTT5=
EXTT6=
EXTT7=
EXTT8=
EXTT9=
EXTT10=
EXTT11=
EXTT12=
EXTT13=
EXTT14=
EXTT15=
EXTT16=
PLAYORDER=
